<svg width="44" height="48" viewBox="0 0 44 48" fill="none" xmlns="http://www.w3.org/2000/svg">
<path d="M22 6.85714C17.6488 6.85714 13.3953 8.06363 9.77746 10.3241C6.15958 12.5845 3.33979 15.7973 1.67466 19.5562C0.00953229 23.3152 -0.426141 27.4514 0.422734 31.4419C1.27161 35.4323 3.3669 39.0978 6.44366 41.9748C9.52041 44.8517 13.4404 46.811 17.708 47.6047C21.9756 48.3985 26.3991 47.9911 30.419 46.4341C34.439 44.8771 37.8749 42.2404 40.2923 38.8574C42.7097 35.4745 44 31.4972 44 27.4286C43.9933 21.9746 41.6733 16.7458 37.549 12.8893C33.4246 9.03272 27.8327 6.86338 22 6.85714ZM22 44.5714C18.374 44.5714 14.8295 43.566 11.8146 41.6823C8.79965 39.7986 6.44982 37.1213 5.06222 33.9889C3.67461 30.8564 3.31155 27.4096 4.01895 24.0842C4.72634 20.7588 6.47242 17.7042 9.03638 15.3067C11.6003 12.9093 14.867 11.2766 18.4234 10.6151C21.9797 9.95365 25.6659 10.2931 29.0159 11.5906C32.3658 12.8881 35.2291 15.0854 37.2436 17.9045C39.2581 20.7236 40.3333 24.038 40.3333 27.4286C40.3279 31.9736 38.3946 36.331 34.9576 39.5448C31.5206 42.7586 26.8606 44.5663 22 44.5714ZM32.4638 17.6443C32.6342 17.8035 32.7694 17.9926 32.8617 18.2007C32.954 18.4088 33.0014 18.6319 33.0014 18.8571C33.0014 19.0824 32.954 19.3055 32.8617 19.5136C32.7694 19.7217 32.6342 19.9108 32.4638 20.07L23.2971 28.6414C23.1268 28.8007 22.9245 28.927 22.702 29.0132C22.4794 29.0994 22.2409 29.1438 22 29.1438C21.7591 29.1438 21.5206 29.0994 21.298 29.0132C21.0755 28.927 20.8733 28.8007 20.7029 28.6414C20.5326 28.4822 20.3975 28.2931 20.3053 28.085C20.2131 27.8769 20.1657 27.6538 20.1657 27.4286C20.1657 27.2033 20.2131 26.9803 20.3053 26.7722C20.3975 26.5641 20.5326 26.375 20.7029 26.2157L29.8696 17.6443C30.0399 17.4849 30.242 17.3585 30.4646 17.2722C30.6872 17.1859 30.9257 17.1415 31.1667 17.1415C31.4076 17.1415 31.6462 17.1859 31.8687 17.2722C32.0913 17.3585 32.2935 17.4849 32.4638 17.6443ZM14.6667 1.71429C14.6667 1.25963 14.8598 0.823593 15.2036 0.502103C15.5475 0.180612 16.0138 0 16.5 0H27.5C27.9862 0 28.4526 0.180612 28.7964 0.502103C29.1402 0.823593 29.3333 1.25963 29.3333 1.71429C29.3333 2.16894 29.1402 2.60498 28.7964 2.92647C28.4526 3.24796 27.9862 3.42857 27.5 3.42857H16.5C16.0138 3.42857 15.5475 3.24796 15.2036 2.92647C14.8598 2.60498 14.6667 2.16894 14.6667 1.71429Z" fill="#323238"/>
</svg>
