<svg width="49" height="49" viewBox="0 0 49 49" fill="none" xmlns="http://www.w3.org/2000/svg">
<path d="M21.1069 35.4998L21.0535 11.4999L17.4535 11.5079L17.5069 35.5078L21.1069 35.4998ZM48.0533 23.9999C48.0609 27.3999 47.458 30.5613 46.2445 33.484C45.031 36.4067 43.3466 38.9505 41.1915 41.1153C39.0363 43.2801 36.5 44.9757 33.5828 46.2022C30.6655 47.4287 27.5069 48.0458 24.1069 48.0533C20.7469 48.0608 17.6055 47.4578 14.6828 46.2443C11.7601 45.0308 9.21635 43.3465 7.05155 41.1913C4.88674 39.0361 3.18109 36.4999 1.93458 33.5827C0.688082 30.6655 0.0610441 27.5069 0.0534701 24.1069C0.0459853 20.7469 0.658989 17.6055 1.89248 14.6827C3.12597 11.76 4.82031 9.21622 6.97549 7.05141C9.13068 4.8866 11.6669 3.18095 14.5841 1.93444C17.5013 0.687943 20.64 0.0609531 23.9999 0.0534682C27.3999 0.0458942 30.5613 0.65885 33.4841 1.89234C36.4068 3.12583 38.9506 4.82017 41.1154 6.97536C43.2802 9.13054 44.9759 11.6668 46.2024 14.584C47.4289 17.5013 48.0459 20.64 48.0533 23.9999ZM44.4534 24.008C44.4404 18.208 42.4796 13.3623 38.571 9.47103C34.6623 5.57973 29.808 3.64054 24.008 3.65346C18.208 3.66638 13.3623 5.62718 9.47104 9.53585C5.57973 13.4445 3.64054 18.2989 3.65346 24.0989C3.66638 29.8988 5.62718 34.7445 9.53586 38.6358C13.4445 42.5271 18.2989 44.4663 24.0989 44.4534C29.8988 44.4404 34.7445 42.4796 38.6358 38.571C42.5271 34.6623 44.4663 29.8079 44.4534 24.008Z" fill="#C4C4CC"/>
<path d="M21.0535 11.4999L21.1069 35.4998L17.5069 35.5078L17.4535 11.5079L21.0535 11.4999Z" fill="#323238"/>
<path d="M30.5 11.4788L30.5535 35.4788L26.9535 35.4868L26.9267 23.4868L26.9 11.4869L30.5 11.4788Z" fill="#323238"/>
</svg>
